<?xml version="1.0" standalone="no"?>
<!DOCTYPE svg PUBLIC "-//W3C//DTD SVG 20010904//EN"
 "http://www.w3.org/TR/2001/REC-SVG-20010904/DTD/svg10.dtd">
<svg version="1.0" xmlns="http://www.w3.org/2000/svg"
 width="380.000000pt" height="380.000000pt" viewBox="0 0 380.000000 380.000000"
 preserveAspectRatio="xMidYMid meet">
<metadata>
Created by potrace 1.14, written by Peter Selinger 2001-2017
</metadata>
<g transform="translate(0.000000,380.000000) scale(0.100000,-0.100000)"
fill="#000000" stroke="none">
<path d="M0 1900 l0 -1900 1900 0 1900 0 0 1900 0 1900 -1900 0 -1900 0 0
-1900z m2100 1174 c234 -46 428 -150 601 -323 448 -447 462 -1152 31 -1612
-105 -111 -189 -175 -322 -243 -212 -108 -410 -147 -644 -126 -745 66 -1242
817 -1006 1520 189 565 756 897 1340 784z"/>
<path d="M1497 2671 c-32 -5 -64 -14 -70 -20 -17 -17 -21 -160 -5 -191 13 -24
19 -25 149 -35 224 -17 224 -17 215 -370 -3 -137 -11 -385 -16 -549 l-11 -300
25 -50 c19 -40 37 -59 79 -84 61 -37 77 -39 100 -14 15 17 17 76 17 646 0 697
-3 668 66 701 28 13 51 13 205 0 252 -21 252 -21 256 -8 5 14 -98 83 -193 131
-88 44 -255 101 -364 123 -107 22 -360 33 -453 20z"/>
</g>
</svg>
